<svg width="229" height="18" viewBox="0 0 229 18" fill="none" xmlns="http://www.w3.org/2000/svg">
<path d="M16 9C16 11.1217 15.1571 13.1566 13.6569 14.6569C12.1566 16.1571 10.1217 17 8 17C5.87827 17 3.84344 16.1571 2.34315 14.6569C0.842855 13.1566 0 11.1217 0 9C0 6.87827 0.842855 4.84344 2.34315 3.34315C3.84344 1.84285 5.87827 1 8 1C10.1217 1 12.1566 1.84285 13.6569 3.34315C15.1571 4.84344 16 6.87827 16 9ZM8 5C7.87361 5.00007 7.74863 5.02662 7.63312 5.07793C7.51761 5.12924 7.41413 5.20418 7.32934 5.29791C7.24456 5.39165 7.18035 5.5021 7.14084 5.62217C7.10134 5.74223 7.08743 5.86923 7.1 5.995L7.45 9.502C7.46176 9.63977 7.5248 9.76811 7.62664 9.86164C7.72849 9.95516 7.86173 10.0071 8 10.0071C8.13827 10.0071 8.27151 9.95516 8.37336 9.86164C8.4752 9.76811 8.53824 9.63977 8.55 9.502L8.9 5.995C8.91257 5.86923 8.89866 5.74223 8.85915 5.62217C8.81965 5.5021 8.75544 5.39165 8.67066 5.29791C8.58587 5.20418 8.48239 5.12924 8.36688 5.07793C8.25137 5.02662 8.12639 5.00007 8 5ZM8.002 11C7.73678 11 7.48243 11.1054 7.29489 11.2929C7.10736 11.4804 7.002 11.7348 7.002 12C7.002 12.2652 7.10736 12.5196 7.29489 12.7071C7.48243 12.8946 7.73678 13 8.002 13C8.26722 13 8.52157 12.8946 8.70911 12.7071C8.89664 12.5196 9.002 12.2652 9.002 12C9.002 11.7348 8.89664 11.4804 8.70911 11.2929C8.52157 11.1054 8.26722 11 8.002 11Z" fill="#495057"/>
<path opacity="0.8" d="M29.8295 6.45455C29.7784 6.02273 29.571 5.6875 29.2074 5.44886C28.8438 5.21023 28.3977 5.09091 27.8693 5.09091C27.483 5.09091 27.1449 5.15341 26.8551 5.27841C26.5682 5.40341 26.3438 5.57528 26.1818 5.79403C26.0227 6.01278 25.9432 6.26136 25.9432 6.53977C25.9432 6.77273 25.9986 6.97301 26.1094 7.14062C26.223 7.3054 26.3679 7.44318 26.544 7.55398C26.7202 7.66193 26.9048 7.75142 27.098 7.82244C27.2912 7.89062 27.4688 7.94602 27.6307 7.98864L28.517 8.22727C28.7443 8.28693 28.9972 8.36932 29.2756 8.47443C29.5568 8.57955 29.8253 8.72301 30.081 8.90483C30.3395 9.08381 30.5526 9.31392 30.7202 9.59517C30.8878 9.87642 30.9716 10.2216 30.9716 10.6307C30.9716 11.1023 30.848 11.5284 30.6009 11.9091C30.3565 12.2898 29.9986 12.5923 29.527 12.8168C29.0582 13.0412 28.4886 13.1534 27.8182 13.1534C27.1932 13.1534 26.652 13.0526 26.1946 12.8509C25.7401 12.6491 25.3821 12.3679 25.1207 12.0071C24.8622 11.6463 24.7159 11.2273 24.6818 10.75H25.7727C25.8011 11.0795 25.9119 11.3523 26.1051 11.5682C26.3011 11.7812 26.5483 11.9403 26.8466 12.0455C27.1477 12.1477 27.4716 12.1989 27.8182 12.1989C28.2216 12.1989 28.5838 12.1335 28.9048 12.0028C29.2259 11.8693 29.4801 11.6847 29.6676 11.4489C29.8551 11.2102 29.9489 10.9318 29.9489 10.6136C29.9489 10.3239 29.8679 10.0881 29.706 9.90625C29.544 9.72443 29.331 9.5767 29.0668 9.46307C28.8026 9.34943 28.517 9.25 28.2102 9.16477L27.1364 8.85795C26.4545 8.66193 25.9148 8.3821 25.517 8.01847C25.1193 7.65483 24.9205 7.17898 24.9205 6.59091C24.9205 6.10227 25.0526 5.67614 25.3168 5.3125C25.5838 4.94602 25.9418 4.66193 26.3906 4.46023C26.8423 4.25568 27.3466 4.15341 27.9034 4.15341C28.4659 4.15341 28.9659 4.25426 29.4034 4.45597C29.8409 4.65483 30.1875 4.92756 30.4432 5.27415C30.7017 5.62074 30.8381 6.0142 30.8523 6.45455H29.8295ZM35.2319 13.1364C34.641 13.1364 34.1225 12.9957 33.6765 12.7145C33.2333 12.4332 32.8867 12.0398 32.6367 11.5341C32.3896 11.0284 32.266 10.4375 32.266 9.76136C32.266 9.07955 32.3896 8.48437 32.6367 7.97585C32.8867 7.46733 33.2333 7.07244 33.6765 6.79119C34.1225 6.50994 34.641 6.36932 35.2319 6.36932C35.8228 6.36932 36.3398 6.50994 36.783 6.79119C37.229 7.07244 37.5756 7.46733 37.8228 7.97585C38.0728 8.48437 38.1978 9.07955 38.1978 9.76136C38.1978 10.4375 38.0728 11.0284 37.8228 11.5341C37.5756 12.0398 37.229 12.4332 36.783 12.7145C36.3398 12.9957 35.8228 13.1364 35.2319 13.1364ZM35.2319 12.233C35.6808 12.233 36.0501 12.1179 36.3398 11.8878C36.6296 11.6577 36.8441 11.3551 36.9833 10.9801C37.1225 10.6051 37.1921 10.1989 37.1921 9.76136C37.1921 9.32386 37.1225 8.91619 36.9833 8.53835C36.8441 8.16051 36.6296 7.85511 36.3398 7.62216C36.0501 7.3892 35.6808 7.27273 35.2319 7.27273C34.783 7.27273 34.4137 7.3892 34.1239 7.62216C33.8342 7.85511 33.6197 8.16051 33.4805 8.53835C33.3413 8.91619 33.2717 9.32386 33.2717 9.76136C33.2717 10.1989 33.3413 10.6051 33.4805 10.9801C33.6197 11.3551 33.8342 11.6577 34.1239 11.8878C34.4137 12.1179 34.783 12.233 35.2319 12.233ZM40.7386 4.27273V13H39.733V4.27273H40.7386ZM45.2397 13.1364C44.6488 13.1364 44.1303 12.9957 43.6843 12.7145C43.2411 12.4332 42.8945 12.0398 42.6445 11.5341C42.3974 11.0284 42.2738 10.4375 42.2738 9.76136C42.2738 9.07955 42.3974 8.48437 42.6445 7.97585C42.8945 7.46733 43.2411 7.07244 43.6843 6.79119C44.1303 6.50994 44.6488 6.36932 45.2397 6.36932C45.8306 6.36932 46.3477 6.50994 46.7908 6.79119C47.2369 7.07244 47.5835 7.46733 47.8306 7.97585C48.0806 8.48437 48.2056 9.07955 48.2056 9.76136C48.2056 10.4375 48.0806 11.0284 47.8306 11.5341C47.5835 12.0398 47.2369 12.4332 46.7908 12.7145C46.3477 12.9957 45.8306 13.1364 45.2397 13.1364ZM45.2397 12.233C45.6886 12.233 46.0579 12.1179 46.3477 11.8878C46.6374 11.6577 46.8519 11.3551 46.9911 10.9801C47.1303 10.6051 47.1999 10.1989 47.1999 9.76136C47.1999 9.32386 47.1303 8.91619 46.9911 8.53835C46.8519 8.16051 46.6374 7.85511 46.3477 7.62216C46.0579 7.3892 45.6886 7.27273 45.2397 7.27273C44.7908 7.27273 44.4215 7.3892 44.1317 7.62216C43.842 7.85511 43.6275 8.16051 43.4883 8.53835C43.3491 8.91619 43.2795 9.32386 43.2795 9.76136C43.2795 10.1989 43.3491 10.6051 43.4883 10.9801C43.6275 11.3551 43.842 11.6577 44.1317 11.8878C44.4215 12.1179 44.7908 12.233 45.2397 12.233ZM54.1214 4.27273V13H53.1158V4.27273H54.1214ZM58.7077 13.1364C58.0771 13.1364 57.533 12.9972 57.0756 12.7188C56.6211 12.4375 56.2702 12.0455 56.0231 11.5426C55.7788 11.0369 55.6566 10.4489 55.6566 9.77841C55.6566 9.10795 55.7788 8.51705 56.0231 8.00568C56.2702 7.49148 56.614 7.09091 57.0543 6.80398C57.4975 6.5142 58.0146 6.36932 58.6055 6.36932C58.9464 6.36932 59.283 6.42614 59.6154 6.53977C59.9478 6.65341 60.2504 6.83807 60.5231 7.09375C60.7958 7.34659 61.0131 7.68182 61.1751 8.09943C61.337 8.51705 61.418 9.03125 61.418 9.64205V10.0682H56.3725V9.19886H60.3952C60.3952 8.82955 60.3214 8.5 60.1737 8.21023C60.0288 7.92045 59.8214 7.69176 59.5515 7.52415C59.2844 7.35653 58.9691 7.27273 58.6055 7.27273C58.2049 7.27273 57.8583 7.37216 57.5657 7.57102C57.2759 7.76705 57.0529 8.02273 56.8967 8.33807C56.7404 8.65341 56.6623 8.99148 56.6623 9.35227V9.93182C56.6623 10.4261 56.7475 10.8452 56.918 11.1889C57.0913 11.5298 57.3313 11.7898 57.6381 11.9688C57.945 12.1449 58.3015 12.233 58.7077 12.233C58.9719 12.233 59.2106 12.196 59.4237 12.1222C59.6396 12.0455 59.8256 11.9318 59.9819 11.7812C60.1381 11.6278 60.2589 11.4375 60.3441 11.2102L61.3157 11.483C61.2134 11.8125 61.0415 12.1023 60.8001 12.3523C60.5586 12.5994 60.2603 12.7926 59.9052 12.9318C59.5501 13.0682 59.1509 13.1364 58.7077 13.1364ZM65.7944 6.45455V7.30682H62.4023V6.45455H65.7944ZM63.391 4.88636H64.3967V11.125C64.3967 11.4091 64.4379 11.6222 64.5202 11.7642C64.6055 11.9034 64.7134 11.9972 64.8441 12.0455C64.9776 12.0909 65.1183 12.1136 65.266 12.1136C65.3768 12.1136 65.4677 12.108 65.5387 12.0966C65.6097 12.0824 65.6665 12.071 65.7092 12.0625L65.9137 12.9659C65.8455 12.9915 65.7504 13.017 65.6282 13.0426C65.506 13.071 65.3512 13.0852 65.1637 13.0852C64.8796 13.0852 64.6012 13.0241 64.3285 12.902C64.0586 12.7798 63.8342 12.5938 63.6552 12.3438C63.479 12.0938 63.391 11.7784 63.391 11.3977V4.88636ZM67.3072 13V6.45455H68.2788V7.44318H68.3469C68.4663 7.11932 68.6822 6.85653 68.9947 6.65483C69.3072 6.45312 69.6594 6.35227 70.0515 6.35227C70.1254 6.35227 70.2177 6.35369 70.3285 6.35653C70.4393 6.35937 70.5231 6.36364 70.5799 6.36932V7.39205C70.5458 7.38352 70.4677 7.37074 70.3455 7.35369C70.2262 7.33381 70.0998 7.32386 69.9663 7.32386C69.6481 7.32386 69.364 7.39062 69.114 7.52415C68.8668 7.65483 68.6708 7.83665 68.5259 8.0696C68.3839 8.29972 68.3129 8.5625 68.3129 8.85795V13H67.3072ZM73.6982 13.1534C73.2834 13.1534 72.907 13.0753 72.5689 12.919C72.2308 12.7599 71.9624 12.5312 71.7635 12.233C71.5646 11.9318 71.4652 11.5682 71.4652 11.142C71.4652 10.767 71.5391 10.4631 71.6868 10.2301C71.8345 9.99432 72.032 9.80966 72.2791 9.67614C72.5263 9.54261 72.799 9.44318 73.0973 9.37784C73.3984 9.30966 73.701 9.25568 74.005 9.21591C74.4027 9.16477 74.7251 9.12642 74.9723 9.10085C75.2223 9.07244 75.4041 9.02557 75.5178 8.96023C75.6342 8.89489 75.6925 8.78125 75.6925 8.61932V8.58523C75.6925 8.16477 75.5774 7.83807 75.3473 7.60511C75.12 7.37216 74.7749 7.25568 74.3118 7.25568C73.8317 7.25568 73.4553 7.3608 73.1825 7.57102C72.9098 7.78125 72.718 8.00568 72.6072 8.24432L71.6527 7.90341C71.8232 7.50568 72.0504 7.19602 72.3345 6.97443C72.6214 6.75 72.9339 6.59375 73.272 6.50568C73.6129 6.41477 73.9482 6.36932 74.2777 6.36932C74.4879 6.36932 74.7294 6.39489 75.0021 6.44602C75.2777 6.49432 75.5433 6.59517 75.799 6.74858C76.0575 6.90199 76.272 7.13352 76.4425 7.44318C76.6129 7.75284 76.6982 8.16761 76.6982 8.6875V13H75.6925V12.1136H75.6413C75.5732 12.2557 75.4595 12.4077 75.3004 12.5696C75.1413 12.7315 74.9297 12.8693 74.6655 12.983C74.4013 13.0966 74.0788 13.1534 73.6982 13.1534ZM73.8516 12.25C74.2493 12.25 74.5845 12.1719 74.8572 12.0156C75.1328 11.8594 75.3402 11.6577 75.4794 11.4105C75.6214 11.1634 75.6925 10.9034 75.6925 10.6307V9.71023C75.6499 9.76136 75.5561 9.80824 75.4112 9.85085C75.2692 9.89062 75.1044 9.92614 74.9169 9.95739C74.7322 9.9858 74.5518 10.0114 74.3757 10.0341C74.2024 10.054 74.0618 10.071 73.9538 10.0852C73.6925 10.1193 73.4482 10.1747 73.2209 10.2514C72.9964 10.3253 72.8146 10.4375 72.6754 10.5881C72.5391 10.7358 72.4709 10.9375 72.4709 11.1932C72.4709 11.5426 72.6001 11.8068 72.8587 11.9858C73.12 12.1619 73.451 12.25 73.8516 12.25ZM83.1701 7.92045L82.2667 8.17614C82.2099 8.02557 82.1261 7.87926 82.0153 7.73722C81.9073 7.59233 81.7596 7.47301 81.5721 7.37926C81.3846 7.28551 81.1445 7.23864 80.8519 7.23864C80.4513 7.23864 80.1175 7.33097 79.8505 7.51562C79.5863 7.69744 79.4542 7.92898 79.4542 8.21023C79.4542 8.46023 79.5451 8.65767 79.7269 8.80256C79.9087 8.94744 80.1928 9.06818 80.5792 9.16477L81.5508 9.40341C82.136 9.54545 82.5721 9.76278 82.859 10.0554C83.146 10.3452 83.2894 10.7187 83.2894 11.1761C83.2894 11.5511 83.1815 11.8864 82.9656 12.1818C82.7525 12.4773 82.4542 12.7102 82.0707 12.8807C81.6871 13.0511 81.2411 13.1364 80.7326 13.1364C80.065 13.1364 79.5124 12.9915 79.0749 12.7017C78.6374 12.4119 78.3604 11.9886 78.244 11.4318L79.1985 11.1932C79.2894 11.5455 79.4613 11.8097 79.7141 11.9858C79.9698 12.1619 80.3036 12.25 80.7156 12.25C81.1843 12.25 81.5565 12.1506 81.832 11.9517C82.1104 11.75 82.2496 11.5085 82.2496 11.2273C82.2496 11 82.1701 10.8097 82.011 10.6562C81.8519 10.5 81.6076 10.3835 81.2781 10.3068L80.1871 10.0511C79.5877 9.90909 79.1474 9.68892 78.8661 9.39062C78.5877 9.08949 78.4485 8.71307 78.4485 8.26136C78.4485 7.89205 78.5522 7.56534 78.7596 7.28125C78.9698 6.99716 79.2553 6.77415 79.6161 6.61222C79.9798 6.45028 80.3917 6.36932 80.8519 6.36932C81.4996 6.36932 82.0082 6.51136 82.3775 6.79545C82.7496 7.07955 83.0138 7.45455 83.1701 7.92045ZM88.1783 13V6.45455H89.1499V7.47727H89.2351C89.3714 7.12784 89.5916 6.85653 89.8956 6.66335C90.1996 6.46733 90.5646 6.36932 90.9908 6.36932C91.4226 6.36932 91.782 6.46733 92.0689 6.66335C92.3587 6.85653 92.5845 7.12784 92.7464 7.47727H92.8146C92.9822 7.1392 93.2337 6.87074 93.5689 6.67188C93.9041 6.47017 94.3061 6.36932 94.7749 6.36932C95.3601 6.36932 95.8388 6.55256 96.2109 6.91903C96.5831 7.28267 96.7692 7.84943 96.7692 8.61932V13H95.7635V8.61932C95.7635 8.13636 95.6314 7.79119 95.3672 7.58381C95.103 7.37642 94.7919 7.27273 94.4339 7.27273C93.9737 7.27273 93.6172 7.41193 93.3643 7.69034C93.1115 7.96591 92.9851 8.31534 92.9851 8.73864V13H91.9624V8.51705C91.9624 8.14489 91.8416 7.84517 91.6001 7.6179C91.3587 7.38778 91.0476 7.27273 90.6669 7.27273C90.4055 7.27273 90.1612 7.34233 89.9339 7.48153C89.7095 7.62074 89.5277 7.81392 89.3885 8.06108C89.2521 8.3054 89.1839 8.58807 89.1839 8.90909V13H88.1783ZM98.608 13V6.45455H99.6136V13H98.608ZM99.1193 5.36364C98.9233 5.36364 98.7543 5.29688 98.6122 5.16335C98.473 5.02983 98.4034 4.86932 98.4034 4.68182C98.4034 4.49432 98.473 4.33381 98.6122 4.20028C98.7543 4.06676 98.9233 4 99.1193 4C99.3153 4 99.483 4.06676 99.6222 4.20028C99.7642 4.33381 99.8352 4.49432 99.8352 4.68182C99.8352 4.86932 99.7642 5.02983 99.6222 5.16335C99.483 5.29688 99.3153 5.36364 99.1193 5.36364ZM102.461 9.0625V13H101.456V6.45455H102.427V7.47727H102.512C102.666 7.14489 102.899 6.87784 103.211 6.67614C103.524 6.47159 103.927 6.36932 104.422 6.36932C104.865 6.36932 105.252 6.46023 105.585 6.64205C105.917 6.82102 106.176 7.09375 106.36 7.46023C106.545 7.82386 106.637 8.28409 106.637 8.84091V13H105.632V8.90909C105.632 8.39489 105.498 7.99432 105.231 7.70739C104.964 7.41761 104.598 7.27273 104.132 7.27273C103.811 7.27273 103.524 7.34233 103.271 7.48153C103.021 7.62074 102.824 7.82386 102.679 8.09091C102.534 8.35795 102.461 8.68182 102.461 9.0625ZM112.6 10.3239V6.45455H113.606V13H112.6V11.892H112.532C112.379 12.2244 112.14 12.5071 111.816 12.7401C111.492 12.9702 111.083 13.0852 110.589 13.0852C110.18 13.0852 109.816 12.9957 109.498 12.8168C109.18 12.6349 108.93 12.3622 108.748 11.9986C108.566 11.6321 108.475 11.1705 108.475 10.6136V6.45455H109.481V10.5455C109.481 11.0227 109.614 11.4034 109.881 11.6875C110.151 11.9716 110.495 12.1136 110.913 12.1136C111.163 12.1136 111.417 12.0497 111.675 11.9219C111.937 11.794 112.156 11.598 112.332 11.3338C112.511 11.0696 112.6 10.733 112.6 10.3239ZM110.589 5.56818L111.629 3.59091H112.805L111.475 5.56818H110.589ZM120.084 7.92045L119.181 8.17614C119.124 8.02557 119.04 7.87926 118.929 7.73722C118.821 7.59233 118.674 7.47301 118.486 7.37926C118.299 7.28551 118.059 7.23864 117.766 7.23864C117.365 7.23864 117.032 7.33097 116.765 7.51562C116.5 7.69744 116.368 7.92898 116.368 8.21023C116.368 8.46023 116.459 8.65767 116.641 8.80256C116.823 8.94744 117.107 9.06818 117.493 9.16477L118.465 9.40341C119.05 9.54545 119.486 9.76278 119.773 10.0554C120.06 10.3452 120.203 10.7187 120.203 11.1761C120.203 11.5511 120.096 11.8864 119.88 12.1818C119.667 12.4773 119.368 12.7102 118.985 12.8807C118.601 13.0511 118.155 13.1364 117.647 13.1364C116.979 13.1364 116.426 12.9915 115.989 12.7017C115.551 12.4119 115.275 11.9886 115.158 11.4318L116.113 11.1932C116.203 11.5455 116.375 11.8097 116.628 11.9858C116.884 12.1619 117.218 12.25 117.63 12.25C118.098 12.25 118.471 12.1506 118.746 11.9517C119.025 11.75 119.164 11.5085 119.164 11.2273C119.164 11 119.084 10.8097 118.925 10.6562C118.766 10.5 118.522 10.3835 118.192 10.3068L117.101 10.0511C116.502 9.90909 116.061 9.68892 115.78 9.39062C115.502 9.08949 115.363 8.71307 115.363 8.26136C115.363 7.89205 115.466 7.56534 115.674 7.28125C115.884 6.99716 116.169 6.77415 116.53 6.61222C116.894 6.45028 117.306 6.36932 117.766 6.36932C118.414 6.36932 118.922 6.51136 119.292 6.79545C119.664 7.07955 119.928 7.45455 120.084 7.92045ZM124.376 13.1364C123.763 13.1364 123.234 12.9915 122.791 12.7017C122.348 12.4119 122.007 12.0128 121.768 11.5043C121.53 10.9957 121.411 10.4148 121.411 9.76136C121.411 9.09659 121.533 8.50994 121.777 8.00142C122.024 7.49006 122.368 7.09091 122.808 6.80398C123.251 6.5142 123.768 6.36932 124.359 6.36932C124.82 6.36932 125.234 6.45455 125.604 6.625C125.973 6.79545 126.276 7.03409 126.511 7.34091C126.747 7.64773 126.893 8.00568 126.95 8.41477H125.945C125.868 8.11648 125.697 7.85227 125.433 7.62216C125.172 7.3892 124.82 7.27273 124.376 7.27273C123.984 7.27273 123.641 7.375 123.345 7.57955C123.053 7.78125 122.824 8.06676 122.659 8.43608C122.497 8.80256 122.416 9.23295 122.416 9.72727C122.416 10.233 122.496 10.6733 122.655 11.0483C122.817 11.4233 123.044 11.7145 123.337 11.9219C123.632 12.1293 123.979 12.233 124.376 12.233C124.638 12.233 124.875 12.1875 125.088 12.0966C125.301 12.0057 125.482 11.875 125.629 11.7045C125.777 11.5341 125.882 11.3295 125.945 11.0909H126.95C126.893 11.4773 126.753 11.8253 126.528 12.1349C126.307 12.4418 126.013 12.6861 125.646 12.8679C125.283 13.0469 124.859 13.1364 124.376 13.1364ZM132.545 10.3239V6.45455H133.551V13H132.545V11.892H132.477C132.324 12.2244 132.085 12.5071 131.761 12.7401C131.438 12.9702 131.028 13.0852 130.534 13.0852C130.125 13.0852 129.761 12.9957 129.443 12.8168C129.125 12.6349 128.875 12.3622 128.693 11.9986C128.511 11.6321 128.42 11.1705 128.42 10.6136V6.45455H129.426V10.5455C129.426 11.0227 129.56 11.4034 129.827 11.6875C130.097 11.9716 130.44 12.1136 130.858 12.1136C131.108 12.1136 131.362 12.0497 131.621 11.9219C131.882 11.794 132.101 11.598 132.277 11.3338C132.456 11.0696 132.545 10.733 132.545 10.3239ZM136.399 4.27273V13H135.393V4.27273H136.399ZM140.167 13.1534C139.752 13.1534 139.376 13.0753 139.038 12.919C138.7 12.7599 138.431 12.5312 138.232 12.233C138.033 11.9318 137.934 11.5682 137.934 11.142C137.934 10.767 138.008 10.4631 138.156 10.2301C138.303 9.99432 138.501 9.80966 138.748 9.67614C138.995 9.54261 139.268 9.44318 139.566 9.37784C139.867 9.30966 140.17 9.25568 140.474 9.21591C140.871 9.16477 141.194 9.12642 141.441 9.10085C141.691 9.07244 141.873 9.02557 141.987 8.96023C142.103 8.89489 142.161 8.78125 142.161 8.61932V8.58523C142.161 8.16477 142.046 7.83807 141.816 7.60511C141.589 7.37216 141.244 7.25568 140.781 7.25568C140.3 7.25568 139.924 7.3608 139.651 7.57102C139.379 7.78125 139.187 8.00568 139.076 8.24432L138.121 7.90341C138.292 7.50568 138.519 7.19602 138.803 6.97443C139.09 6.75 139.403 6.59375 139.741 6.50568C140.082 6.41477 140.417 6.36932 140.746 6.36932C140.957 6.36932 141.198 6.39489 141.471 6.44602C141.746 6.49432 142.012 6.59517 142.268 6.74858C142.526 6.90199 142.741 7.13352 142.911 7.44318C143.082 7.75284 143.167 8.16761 143.167 8.6875V13H142.161V12.1136H142.11C142.042 12.2557 141.928 12.4077 141.769 12.5696C141.61 12.7315 141.398 12.8693 141.134 12.983C140.87 13.0966 140.548 13.1534 140.167 13.1534ZM140.32 12.25C140.718 12.25 141.053 12.1719 141.326 12.0156C141.602 11.8594 141.809 11.6577 141.948 11.4105C142.09 11.1634 142.161 10.9034 142.161 10.6307V9.71023C142.119 9.76136 142.025 9.80824 141.88 9.85085C141.738 9.89062 141.573 9.92614 141.386 9.95739C141.201 9.9858 141.021 10.0114 140.844 10.0341C140.671 10.054 140.531 10.071 140.423 10.0852C140.161 10.1193 139.917 10.1747 139.69 10.2514C139.465 10.3253 139.283 10.4375 139.144 10.5881C139.008 10.7358 138.94 10.9375 138.94 11.1932C138.94 11.5426 139.069 11.8068 139.327 11.9858C139.589 12.1619 139.92 12.25 140.32 12.25ZM149.639 7.92045L148.735 8.17614C148.679 8.02557 148.595 7.87926 148.484 7.73722C148.376 7.59233 148.228 7.47301 148.041 7.37926C147.853 7.28551 147.613 7.23864 147.321 7.23864C146.92 7.23864 146.586 7.33097 146.319 7.51562C146.055 7.69744 145.923 7.92898 145.923 8.21023C145.923 8.46023 146.014 8.65767 146.196 8.80256C146.377 8.94744 146.662 9.06818 147.048 9.16477L148.02 9.40341C148.605 9.54545 149.041 9.76278 149.328 10.0554C149.615 10.3452 149.758 10.7187 149.758 11.1761C149.758 11.5511 149.65 11.8864 149.434 12.1818C149.221 12.4773 148.923 12.7102 148.539 12.8807C148.156 13.0511 147.71 13.1364 147.201 13.1364C146.534 13.1364 145.981 12.9915 145.544 12.7017C145.106 12.4119 144.829 11.9886 144.713 11.4318L145.667 11.1932C145.758 11.5455 145.93 11.8097 146.183 11.9858C146.439 12.1619 146.772 12.25 147.184 12.25C147.653 12.25 148.025 12.1506 148.301 11.9517C148.579 11.75 148.718 11.5085 148.718 11.2273C148.718 11 148.639 10.8097 148.48 10.6562C148.321 10.5 148.076 10.3835 147.747 10.3068L146.656 10.0511C146.056 9.90909 145.616 9.68892 145.335 9.39062C145.056 9.08949 144.917 8.71307 144.917 8.26136C144.917 7.89205 145.021 7.56534 145.228 7.28125C145.439 6.99716 145.724 6.77415 146.085 6.61222C146.449 6.45028 146.86 6.36932 147.321 6.36932C147.968 6.36932 148.477 6.51136 148.846 6.79545C149.218 7.07955 149.483 7.45455 149.639 7.92045ZM155.295 15.4545C155.124 15.4545 154.972 15.4403 154.839 15.4119C154.705 15.3864 154.613 15.3608 154.562 15.3352L154.817 14.4489C155.062 14.5114 155.278 14.5341 155.465 14.517C155.653 14.5 155.819 14.4162 155.964 14.2656C156.112 14.1179 156.246 13.8778 156.369 13.5455L156.556 13.0341L154.136 6.45455H155.227L157.033 11.6705H157.102L158.908 6.45455H159.999L157.221 13.9545C157.096 14.2926 156.941 14.5724 156.756 14.794C156.572 15.0185 156.357 15.1847 156.113 15.2926C155.871 15.4006 155.599 15.4545 155.295 15.4545ZM169.338 7.92045L168.435 8.17614C168.378 8.02557 168.294 7.87926 168.183 7.73722C168.075 7.59233 167.928 7.47301 167.74 7.37926C167.553 7.28551 167.312 7.23864 167.02 7.23864C166.619 7.23864 166.286 7.33097 166.018 7.51562C165.754 7.69744 165.622 7.92898 165.622 8.21023C165.622 8.46023 165.713 8.65767 165.895 8.80256C166.077 8.94744 166.361 9.06818 166.747 9.16477L167.719 9.40341C168.304 9.54545 168.74 9.76278 169.027 10.0554C169.314 10.3452 169.457 10.7187 169.457 11.1761C169.457 11.5511 169.349 11.8864 169.134 12.1818C168.92 12.4773 168.622 12.7102 168.239 12.8807C167.855 13.0511 167.409 13.1364 166.901 13.1364C166.233 13.1364 165.68 12.9915 165.243 12.7017C164.805 12.4119 164.528 11.9886 164.412 11.4318L165.366 11.1932C165.457 11.5455 165.629 11.8097 165.882 11.9858C166.138 12.1619 166.472 12.25 166.884 12.25C167.352 12.25 167.724 12.1506 168 11.9517C168.278 11.75 168.418 11.5085 168.418 11.2273C168.418 11 168.338 10.8097 168.179 10.6562C168.02 10.5 167.776 10.3835 167.446 10.3068L166.355 10.0511C165.756 9.90909 165.315 9.68892 165.034 9.39062C164.756 9.08949 164.616 8.71307 164.616 8.26136C164.616 7.89205 164.72 7.56534 164.928 7.28125C165.138 6.99716 165.423 6.77415 165.784 6.61222C166.148 6.45028 166.56 6.36932 167.02 6.36932C167.668 6.36932 168.176 6.51136 168.545 6.79545C168.918 7.07955 169.182 7.45455 169.338 7.92045ZM170.971 13V6.45455H171.977V13H170.971ZM171.483 5.36364C171.287 5.36364 171.118 5.29688 170.975 5.16335C170.836 5.02983 170.767 4.86932 170.767 4.68182C170.767 4.49432 170.836 4.33381 170.975 4.20028C171.118 4.06676 171.287 4 171.483 4C171.679 4 171.846 4.06676 171.985 4.20028C172.127 4.33381 172.199 4.49432 172.199 4.68182C172.199 4.86932 172.127 5.02983 171.985 5.16335C171.846 5.29688 171.679 5.36364 171.483 5.36364ZM174.825 9.0625V13H173.819V6.45455H174.79V7.47727H174.876C175.029 7.14489 175.262 6.87784 175.575 6.67614C175.887 6.47159 176.29 6.36932 176.785 6.36932C177.228 6.36932 177.616 6.46023 177.948 6.64205C178.281 6.82102 178.539 7.09375 178.724 7.46023C178.908 7.82386 179.001 8.28409 179.001 8.84091V13H177.995V8.90909C177.995 8.39489 177.862 7.99432 177.594 7.70739C177.327 7.41761 176.961 7.27273 176.495 7.27273C176.174 7.27273 175.887 7.34233 175.634 7.48153C175.384 7.62074 175.187 7.82386 175.042 8.09091C174.897 8.35795 174.825 8.68182 174.825 9.0625ZM186.14 13.1534C185.725 13.1534 185.348 13.0753 185.01 12.919C184.672 12.7599 184.404 12.5312 184.205 12.233C184.006 11.9318 183.907 11.5682 183.907 11.142C183.907 10.767 183.98 10.4631 184.128 10.2301C184.276 9.99432 184.473 9.80966 184.721 9.67614C184.968 9.54261 185.24 9.44318 185.539 9.37784C185.84 9.30966 186.142 9.25568 186.446 9.21591C186.844 9.16477 187.167 9.12642 187.414 9.10085C187.664 9.07244 187.846 9.02557 187.959 8.96023C188.076 8.89489 188.134 8.78125 188.134 8.61932V8.58523C188.134 8.16477 188.019 7.83807 187.789 7.60511C187.561 7.37216 187.216 7.25568 186.753 7.25568C186.273 7.25568 185.897 7.3608 185.624 7.57102C185.351 7.78125 185.159 8.00568 185.049 8.24432L184.094 7.90341C184.265 7.50568 184.492 7.19602 184.776 6.97443C185.063 6.75 185.375 6.59375 185.713 6.50568C186.054 6.41477 186.39 6.36932 186.719 6.36932C186.929 6.36932 187.171 6.39489 187.444 6.44602C187.719 6.49432 187.985 6.59517 188.24 6.74858C188.499 6.90199 188.713 7.13352 188.884 7.44318C189.054 7.75284 189.14 8.16761 189.14 8.6875V13H188.134V12.1136H188.083C188.015 12.2557 187.901 12.4077 187.742 12.5696C187.583 12.7315 187.371 12.8693 187.107 12.983C186.843 13.0966 186.52 13.1534 186.14 13.1534ZM186.293 12.25C186.691 12.25 187.026 12.1719 187.299 12.0156C187.574 11.8594 187.782 11.6577 187.921 11.4105C188.063 11.1634 188.134 10.9034 188.134 10.6307V9.71023C188.091 9.76136 187.998 9.80824 187.853 9.85085C187.711 9.89062 187.546 9.92614 187.358 9.95739C187.174 9.9858 186.993 10.0114 186.817 10.0341C186.644 10.054 186.503 10.071 186.395 10.0852C186.134 10.1193 185.89 10.1747 185.662 10.2514C185.438 10.3253 185.256 10.4375 185.117 10.5881C184.98 10.7358 184.912 10.9375 184.912 11.1932C184.912 11.5426 185.042 11.8068 185.3 11.9858C185.561 12.1619 185.892 12.25 186.293 12.25ZM193.634 13.1364C193.021 13.1364 192.492 12.9915 192.049 12.7017C191.606 12.4119 191.265 12.0128 191.026 11.5043C190.788 10.9957 190.668 10.4148 190.668 9.76136C190.668 9.09659 190.79 8.50994 191.035 8.00142C191.282 7.49006 191.626 7.09091 192.066 6.80398C192.509 6.5142 193.026 6.36932 193.617 6.36932C194.077 6.36932 194.492 6.45455 194.862 6.625C195.231 6.79545 195.533 7.03409 195.769 7.34091C196.005 7.64773 196.151 8.00568 196.208 8.41477H195.202C195.126 8.11648 194.955 7.85227 194.691 7.62216C194.43 7.3892 194.077 7.27273 193.634 7.27273C193.242 7.27273 192.898 7.375 192.603 7.57955C192.31 7.78125 192.082 8.06676 191.917 8.43608C191.755 8.80256 191.674 9.23295 191.674 9.72727C191.674 10.233 191.754 10.6733 191.913 11.0483C192.075 11.4233 192.302 11.7145 192.594 11.9219C192.89 12.1293 193.237 12.233 193.634 12.233C193.896 12.233 194.133 12.1875 194.346 12.0966C194.559 12.0057 194.739 11.875 194.887 11.7045C195.035 11.5341 195.14 11.3295 195.202 11.0909H196.208C196.151 11.4773 196.011 11.8253 195.786 12.1349C195.565 12.4418 195.271 12.6861 194.904 12.8679C194.54 13.0469 194.117 13.1364 193.634 13.1364ZM200.423 13.1364C199.792 13.1364 199.248 12.9972 198.79 12.7188C198.336 12.4375 197.985 12.0455 197.738 11.5426C197.494 11.0369 197.371 10.4489 197.371 9.77841C197.371 9.10795 197.494 8.51705 197.738 8.00568C197.985 7.49148 198.329 7.09091 198.769 6.80398C199.212 6.5142 199.729 6.36932 200.32 6.36932C200.661 6.36932 200.998 6.42614 201.33 6.53977C201.663 6.65341 201.965 6.83807 202.238 7.09375C202.511 7.34659 202.728 7.68182 202.89 8.09943C203.052 8.51705 203.133 9.03125 203.133 9.64205V10.0682H198.087V9.19886H202.11C202.11 8.82955 202.036 8.5 201.888 8.21023C201.744 7.92045 201.536 7.69176 201.266 7.52415C200.999 7.35653 200.684 7.27273 200.32 7.27273C199.92 7.27273 199.573 7.37216 199.281 7.57102C198.991 7.76705 198.768 8.02273 198.612 8.33807C198.455 8.65341 198.377 8.99148 198.377 9.35227V9.93182C198.377 10.4261 198.462 10.8452 198.633 11.1889C198.806 11.5298 199.046 11.7898 199.353 11.9688C199.66 12.1449 200.016 12.233 200.423 12.233C200.687 12.233 200.925 12.196 201.138 12.1222C201.354 12.0455 201.54 11.9318 201.697 11.7812C201.853 11.6278 201.974 11.4375 202.059 11.2102L203.031 11.483C202.928 11.8125 202.756 12.1023 202.515 12.3523C202.273 12.5994 201.975 12.7926 201.62 12.9318C201.265 13.0682 200.866 13.1364 200.423 13.1364ZM205.668 9.0625V13H204.663V6.45455H205.634V7.47727H205.719C205.873 7.14489 206.106 6.87784 206.418 6.67614C206.731 6.47159 207.134 6.36932 207.629 6.36932C208.072 6.36932 208.46 6.46023 208.792 6.64205C209.124 6.82102 209.383 7.09375 209.567 7.46023C209.752 7.82386 209.844 8.28409 209.844 8.84091V13H208.839V8.90909C208.839 8.39489 208.705 7.99432 208.438 7.70739C208.171 7.41761 207.805 7.27273 207.339 7.27273C207.018 7.27273 206.731 7.34233 206.478 7.48153C206.228 7.62074 206.031 7.82386 205.886 8.09091C205.741 8.35795 205.668 8.68182 205.668 9.0625ZM214.529 6.45455V7.30682H211.137V6.45455H214.529ZM212.125 4.88636H213.131V11.125C213.131 11.4091 213.172 11.6222 213.255 11.7642C213.34 11.9034 213.448 11.9972 213.578 12.0455C213.712 12.0909 213.853 12.1136 214 12.1136C214.111 12.1136 214.202 12.108 214.273 12.0966C214.344 12.0824 214.401 12.071 214.444 12.0625L214.648 12.9659C214.58 12.9915 214.485 13.017 214.363 13.0426C214.24 13.071 214.086 13.0852 213.898 13.0852C213.614 13.0852 213.336 13.0241 213.063 12.902C212.793 12.7798 212.569 12.5938 212.39 12.3438C212.213 12.0938 212.125 11.7784 212.125 11.3977V4.88636ZM218.63 13.1364C218.039 13.1364 217.521 12.9957 217.075 12.7145C216.632 12.4332 216.285 12.0398 216.035 11.5341C215.788 11.0284 215.664 10.4375 215.664 9.76136C215.664 9.07955 215.788 8.48437 216.035 7.97585C216.285 7.46733 216.632 7.07244 217.075 6.79119C217.521 6.50994 218.039 6.36932 218.63 6.36932C219.221 6.36932 219.738 6.50994 220.181 6.79119C220.627 7.07244 220.974 7.46733 221.221 7.97585C221.471 8.48437 221.596 9.07955 221.596 9.76136C221.596 10.4375 221.471 11.0284 221.221 11.5341C220.974 12.0398 220.627 12.4332 220.181 12.7145C219.738 12.9957 219.221 13.1364 218.63 13.1364ZM218.63 12.233C219.079 12.233 219.449 12.1179 219.738 11.8878C220.028 11.6577 220.243 11.3551 220.382 10.9801C220.521 10.6051 220.591 10.1989 220.591 9.76136C220.591 9.32386 220.521 8.91619 220.382 8.53835C220.243 8.16051 220.028 7.85511 219.738 7.62216C219.449 7.3892 219.079 7.27273 218.63 7.27273C218.181 7.27273 217.812 7.3892 217.522 7.62216C217.233 7.85511 217.018 8.16051 216.879 8.53835C216.74 8.91619 216.67 9.32386 216.67 9.76136C216.67 10.1989 216.74 10.6051 216.879 10.9801C217.018 11.3551 217.233 11.6577 217.522 11.8878C217.812 12.1179 218.181 12.233 218.63 12.233ZM227.768 7.92045L226.864 8.17614C226.808 8.02557 226.724 7.87926 226.613 7.73722C226.505 7.59233 226.357 7.47301 226.17 7.37926C225.982 7.28551 225.742 7.23864 225.45 7.23864C225.049 7.23864 224.715 7.33097 224.448 7.51562C224.184 7.69744 224.052 7.92898 224.052 8.21023C224.052 8.46023 224.143 8.65767 224.325 8.80256C224.506 8.94744 224.79 9.06818 225.177 9.16477L226.148 9.40341C226.734 9.54545 227.17 9.76278 227.457 10.0554C227.744 10.3452 227.887 10.7187 227.887 11.1761C227.887 11.5511 227.779 11.8864 227.563 12.1818C227.35 12.4773 227.052 12.7102 226.668 12.8807C226.285 13.0511 225.839 13.1364 225.33 13.1364C224.663 13.1364 224.11 12.9915 223.673 12.7017C223.235 12.4119 222.958 11.9886 222.842 11.4318L223.796 11.1932C223.887 11.5455 224.059 11.8097 224.312 11.9858C224.567 12.1619 224.901 12.25 225.313 12.25C225.782 12.25 226.154 12.1506 226.43 11.9517C226.708 11.75 226.847 11.5085 226.847 11.2273C226.847 11 226.768 10.8097 226.609 10.6562C226.45 10.5 226.205 10.3835 225.876 10.3068L224.785 10.0511C224.185 9.90909 223.745 9.68892 223.464 9.39062C223.185 9.08949 223.046 8.71307 223.046 8.26136C223.046 7.89205 223.15 7.56534 223.357 7.28125C223.567 6.99716 223.853 6.77415 224.214 6.61222C224.577 6.45028 224.989 6.36932 225.45 6.36932C226.097 6.36932 226.606 6.51136 226.975 6.79545C227.347 7.07955 227.612 7.45455 227.768 7.92045Z" fill="#495057"/>
</svg>
